<svg width="12" height="12" viewBox="0 0 12 12" fill="none" xmlns="http://www.w3.org/2000/svg">
<rect width="12" height="12" rx="6" fill="white"/>
<path d="M9.83332 3.48771C9.78481 3.43881 9.7271 3.39999 9.66351 3.3735C9.59992 3.34701 9.53172 3.33337 9.46284 3.33337C9.39395 3.33337 9.32575 3.34701 9.26216 3.3735C9.19858 3.39999 9.14087 3.43881 9.09236 3.48771L5.20493 7.38013L3.57169 5.74176C3.52132 5.69311 3.46187 5.65486 3.39672 5.62919C3.33157 5.60352 3.262 5.59093 3.19199 5.59214C3.12197 5.59335 3.05288 5.60834 2.98866 5.63625C2.92443 5.66416 2.86634 5.70445 2.81769 5.75481C2.76903 5.80517 2.73078 5.86462 2.7051 5.92977C2.67943 5.99491 2.66684 6.06448 2.66805 6.13449C2.66926 6.2045 2.68425 6.27359 2.71216 6.33781C2.74008 6.40203 2.78037 6.46012 2.83073 6.50877L4.83445 8.51237C4.88296 8.56127 4.94067 8.60009 5.00426 8.62658C5.06784 8.65307 5.13605 8.66671 5.20493 8.66671C5.27382 8.66671 5.34202 8.65307 5.4056 8.62658C5.46919 8.60009 5.5269 8.56127 5.57541 8.51237L9.83332 4.25472C9.88628 4.20586 9.92855 4.14656 9.95746 4.08055C9.98638 4.01455 10.0013 3.94327 10.0013 3.87121C10.0013 3.79916 9.98638 3.72788 9.95746 3.66188C9.92855 3.59587 9.88628 3.53657 9.83332 3.48771Z" fill="#1D9300"/>
</svg>
