<svg width="16" height="14" viewBox="0 0 16 14" fill="none" xmlns="http://www.w3.org/2000/svg">
<path d="M14.3495 1.40196C13.5241 0.59676 12.4299 0.107207 11.2657 0.022331C10.1016 -0.0625454 8.94485 0.262892 8.00592 0.93946C7.01681 0.221931 5.78568 -0.103431 4.56045 0.0288941C3.33522 0.161219 2.2069 0.741402 1.40272 1.65261C0.598527 2.56381 0.178202 3.73836 0.226384 4.93972C0.274566 6.14107 0.787676 7.28001 1.66239 8.12716L7.45397 13.7757C7.52624 13.8468 7.61222 13.9032 7.70695 13.9417C7.80168 13.9802 7.9033 14 8.00592 14C8.10855 14 8.21016 13.9802 8.30489 13.9417C8.39962 13.9032 8.4856 13.8468 8.55787 13.7757L11.4537 10.9514L14.3495 8.12716C14.8024 7.68568 15.1617 7.16148 15.4069 6.58451C15.652 6.00754 15.7782 5.38911 15.7782 4.76456C15.7782 4.14001 15.652 3.52158 15.4069 2.94461C15.1617 2.36764 14.8024 1.84344 14.3495 1.40196ZM13.2533 7.05811L10.6296 9.61323L8.00592 12.1684L2.75851 7.05811C2.2961 6.60523 1.9811 6.02927 1.85303 5.40246C1.72495 4.77566 1.78951 4.12592 2.03861 3.53476C2.2877 2.9436 2.71023 2.43735 3.2532 2.0795C3.79617 1.72166 4.4354 1.52815 5.09069 1.52327C5.96613 1.52536 6.80492 1.86623 7.42287 2.47102C7.49514 2.54208 7.58112 2.59849 7.67586 2.63698C7.77059 2.67547 7.8722 2.69529 7.97482 2.69529C8.07745 2.69529 8.17906 2.67547 8.27379 2.63698C8.36852 2.59849 8.45451 2.54208 8.52677 2.47102C9.16293 1.93337 9.98477 1.65152 10.8259 1.68251C11.6671 1.71351 12.4648 2.05503 13.0576 2.63796C13.6503 3.2209 13.9939 4.00169 14.0187 4.82233C14.0435 5.64296 13.7477 6.44214 13.1911 7.05811H13.2533Z" fill="#2E2E30"/>
</svg>
