<svg width="14" height="13" viewBox="0 0 14 13" fill="none" xmlns="http://www.w3.org/2000/svg">
<path d="M7.8584 0.519531C7.9037 0.543763 7.95841 0.574572 8.02148 0.614258C8.2244 0.741936 8.48555 0.932816 8.78906 1.17383C9.39434 1.65447 10.1363 2.31267 10.8574 3.00977C11.579 3.70735 12.2703 4.43458 12.7773 5.05371C13.0315 5.36406 13.2321 5.63755 13.3662 5.86035C13.4331 5.97147 13.4782 6.06219 13.5059 6.13184C13.5275 6.18636 13.5329 6.21526 13.5342 6.22266C13.5328 6.23041 13.5272 6.25865 13.5059 6.3125C13.4783 6.38214 13.4331 6.47274 13.3662 6.58398C13.2321 6.8068 13.0316 7.08119 12.7773 7.3916C12.2703 8.01063 11.579 8.73812 10.8574 9.43555C10.1364 10.1324 9.39427 10.79 8.78906 11.2705C8.48553 11.5115 8.2244 11.7024 8.02148 11.8301C7.95873 11.8696 7.90356 11.8987 7.8584 11.9229C7.8338 11.8696 7.80489 11.7972 7.77637 11.7021C7.68026 11.3816 7.6103 10.9312 7.5625 10.4531C7.51533 9.98118 7.49144 9.50604 7.47949 9.14746C7.47354 8.96878 7.47121 8.81957 7.46973 8.71582C7.46899 8.6643 7.46796 8.62397 7.46777 8.59668V8.08887H7.00098C4.14883 8.08894 2.5579 9.11617 1.63867 10.1973C1.18767 10.7277 0.91232 11.2557 0.729492 11.6338C0.70817 11.6779 0.68761 11.7177 0.669922 11.7549C0.599697 11.5903 0.536027 11.3554 0.500977 11.0537C0.416453 10.326 0.500993 9.32875 0.861328 8.32422C1.22025 7.32365 1.84508 6.33611 2.82227 5.59863C3.79547 4.8642 5.14697 4.35553 7.00098 4.35547H7.46777V3.84863C7.46796 3.82125 7.46899 3.78042 7.46973 3.72852C7.47121 3.62467 7.47354 3.47565 7.47949 3.29688C7.49145 2.93816 7.51532 2.46328 7.5625 1.99121C7.61029 1.51306 7.68026 1.06287 7.77637 0.742188C7.80515 0.646192 7.83363 0.572944 7.8584 0.519531Z" stroke="#2E2E30" stroke-width="0.933333"/>
</svg>
