<svg width="16" height="16" viewBox="0 0 16 16" fill="none" xmlns="http://www.w3.org/2000/svg">
<path d="M7.69967 0.924332C7.7942 0.633392 8.2058 0.633392 8.30033 0.924332L9.94973 6.00064C9.992 6.13075 10.1133 6.21885 10.2501 6.21885H15.5876C15.8935 6.21885 16.0207 6.6103 15.7732 6.79012L11.4551 9.92745C11.3444 10.0079 11.2981 10.1504 11.3403 10.2805L12.9897 15.3568C13.0843 15.6478 12.7513 15.8897 12.5038 15.7099L8.18562 12.5726C8.07494 12.4921 7.92506 12.4921 7.81438 12.5726L3.49622 15.7099C3.24873 15.8897 2.91573 15.6478 3.01027 15.3568L4.65966 10.2805C4.70194 10.1504 4.65562 10.0079 4.54494 9.92745L0.226776 6.79012C-0.020713 6.6103 0.106479 6.21885 0.412392 6.21885H5.74994C5.88675 6.21885 6.008 6.13075 6.05027 6.00064L7.69967 0.924332Z" fill="#FF9B07"/>
</svg>
